<svg width="162" height="26" viewBox="0 0 162 26" fill="none" xmlns="http://www.w3.org/2000/svg">
<path d="M4.96659 24.9325C5.10873 24.0966 5.2653 23.1639 5.42743 22.2324C5.74279 20.4243 6.05705 18.6151 6.38241 16.8081C6.42016 16.5983 6.32689 16.4895 6.19474 16.3632C4.33253 14.5771 2.47253 12.7887 0.61476 10.9993C0.48928 10.8784 0.3638 10.7543 0.257197 10.617C-0.205858 10.0205 -0.0348498 9.50313 0.699154 9.32628C1.07115 9.2362 1.45426 9.18897 1.83403 9.13404C4.1915 8.7979 6.55009 8.46287 8.90978 8.13332C9.12965 8.10256 9.24625 8.0026 9.34285 7.80817C10.5088 5.4596 11.6826 3.11542 12.8552 0.770149C13.0429 0.395564 13.2227 -0.00758112 13.7324 0.000108303C14.2221 0.00779772 14.3987 0.401057 14.5808 0.764657C15.7535 3.10993 16.9283 5.45411 18.092 7.80377C18.1964 8.01578 18.3286 8.10586 18.5562 8.13771C21.1646 8.50461 23.7731 8.87809 26.3804 9.25378C26.5636 9.28014 26.7491 9.32079 26.9223 9.3845C27.4464 9.57673 27.5908 10.0161 27.2788 10.4775C27.1699 10.639 27.0311 10.7829 26.8901 10.918C25.019 12.7261 23.1479 14.5342 21.269 16.3346C21.0936 16.5027 21.0325 16.6488 21.0769 16.8993C21.5344 19.4554 21.9764 22.0138 22.415 24.5722C22.4528 24.7941 22.4583 25.0292 22.4317 25.2533C22.3761 25.7278 22.033 25.9585 21.5677 25.8454C21.389 25.8025 21.2157 25.7245 21.0514 25.6399C18.6995 24.4206 16.3464 23.1991 14.0001 21.9688C13.7891 21.8578 13.6347 21.8677 13.4282 21.9754C11.0907 23.2013 8.74877 24.4162 6.40684 25.6333C6.28025 25.6993 6.15255 25.7652 6.01929 25.8102C5.39522 26.0222 4.9355 25.6795 4.9677 24.9303L4.96659 24.9325Z" fill="#0071BC"/>
<path d="M38.6063 24.9328C38.7484 24.0968 38.905 23.1642 39.0671 22.2327C39.3825 20.4246 39.6967 18.6153 40.0221 16.8083C40.0598 16.5985 39.9666 16.4898 39.8344 16.3634C37.9722 14.5773 36.1122 12.789 34.2544 10.9995C34.129 10.8787 34.0035 10.7546 33.8969 10.6172C33.4338 10.0208 33.6048 9.50338 34.3388 9.32652C34.7108 9.23645 35.0939 9.18921 35.4737 9.13429C37.8312 8.79815 40.1898 8.46311 42.5495 8.13356C42.7693 8.10281 42.8859 8.00284 42.9825 7.80841C44.1485 5.45984 45.3222 3.11567 46.4949 0.770394C46.6814 0.395809 46.8624 -0.00733627 47.3721 0.000353152C47.8618 0.00804257 48.0384 0.401302 48.2205 0.764901C49.3931 3.11017 50.568 5.45435 51.7317 7.80402C51.8361 8.01603 51.9682 8.1061 52.1959 8.13796C54.8043 8.50485 57.4128 8.87834 60.0201 9.25402C60.2033 9.28039 60.3887 9.32103 60.562 9.38474C61.0861 9.57698 61.2305 10.0164 60.9184 10.4777C60.8096 10.6392 60.6708 10.7831 60.5298 10.9182C58.6587 12.7263 56.7876 14.5345 54.9087 16.3349C54.7332 16.5029 54.6722 16.649 54.7166 16.8995C55.1741 19.4557 55.616 22.0141 56.0547 24.5724C56.0924 24.7943 56.098 25.0294 56.0713 25.2535C56.0158 25.7281 55.6727 25.9587 55.2074 25.8456C55.0286 25.8028 54.8554 25.7248 54.691 25.6402C52.3391 24.4209 49.9861 23.1993 47.6397 21.969C47.4287 21.8581 47.2744 21.868 47.0679 21.9756C44.7304 23.2015 42.3884 24.4165 40.0465 25.6336C39.9199 25.6995 39.7922 25.7654 39.659 25.8104C39.0349 26.0225 38.5752 25.6797 38.6074 24.9306L38.6063 24.9328Z" fill="#0071BC"/>
<path d="M72.2461 24.9328C72.3882 24.0968 72.5448 23.1642 72.7069 22.2327C73.0223 20.4246 73.3365 18.6153 73.6619 16.8083C73.6996 16.5985 73.6064 16.4898 73.4742 16.3634C71.612 14.5773 69.752 12.789 67.8942 10.9995C67.7687 10.8787 67.6433 10.7546 67.5367 10.6172C67.0736 10.0208 67.2446 9.50338 67.9786 9.32652C68.3506 9.23645 68.7337 9.18921 69.1135 9.13429C71.471 8.79815 73.8296 8.46311 76.1892 8.13356C76.4091 8.10281 76.5257 8.00284 76.6223 7.80841C77.7883 5.45984 78.962 3.11567 80.1347 0.770394C80.3212 0.395809 80.5022 -0.00733627 81.0119 0.000353152C81.5016 0.00804257 81.6782 0.401302 81.8603 0.764901C83.0329 3.11017 84.2078 5.45435 85.3715 7.80402C85.4759 8.01603 85.608 8.1061 85.8357 8.13796C88.4441 8.50485 91.0525 8.87834 93.6599 9.25402C93.8431 9.28039 94.0285 9.32103 94.2018 9.38474C94.7259 9.57698 94.8703 10.0164 94.5582 10.4777C94.4494 10.6392 94.3106 10.7831 94.1696 10.9182C92.2985 12.7263 90.4274 14.5345 88.5485 16.3349C88.373 16.5029 88.312 16.649 88.3564 16.8995C88.8139 19.4557 89.2558 22.0141 89.6945 24.5724C89.7322 24.7943 89.7378 25.0294 89.7111 25.2535C89.6556 25.7281 89.3125 25.9587 88.8472 25.8456C88.6684 25.8028 88.4952 25.7248 88.3308 25.6402C85.9789 24.4209 83.6259 23.1993 81.2795 21.969C81.0685 21.8581 80.9142 21.868 80.7076 21.9756C78.3702 23.2015 76.0282 24.4165 73.6863 25.6336C73.5597 25.6995 73.432 25.7654 73.2988 25.8104C72.6747 26.0225 72.215 25.6797 72.2472 24.9306L72.2461 24.9328Z" fill="#0071BC"/>
<path d="M105.886 24.9328C106.028 24.0968 106.185 23.1642 106.347 22.2327C106.662 20.4246 106.976 18.6153 107.302 16.8083C107.339 16.5985 107.246 16.4898 107.114 16.3634C105.252 14.5773 103.392 12.789 101.534 10.9995C101.409 10.8787 101.283 10.7546 101.176 10.6172C100.713 10.0208 100.884 9.50338 101.618 9.32652C101.99 9.23645 102.374 9.18921 102.753 9.13429C105.111 8.79815 107.469 8.46311 109.829 8.13356C110.049 8.10281 110.166 8.00284 110.262 7.80841C111.428 5.45984 112.602 3.11567 113.774 0.770394C113.961 0.395809 114.142 -0.00733627 114.652 0.000353152C115.141 0.00804257 115.318 0.401302 115.5 0.764901C116.673 3.11017 117.848 5.45435 119.011 7.80402C119.116 8.01603 119.248 8.1061 119.475 8.13796C122.084 8.50485 124.692 8.87834 127.3 9.25402C127.483 9.28039 127.668 9.32103 127.842 9.38474C128.366 9.57698 128.51 10.0164 128.198 10.4777C128.089 10.6392 127.95 10.7831 127.809 10.9182C125.938 12.7263 124.067 14.5345 122.188 16.3349C122.013 16.5029 121.952 16.649 121.996 16.8995C122.454 19.4557 122.896 22.0141 123.334 24.5724C123.372 24.7943 123.378 25.0294 123.351 25.2535C123.295 25.7281 122.952 25.9587 122.487 25.8456C122.308 25.8028 122.135 25.7248 121.971 25.6402C119.619 24.4209 117.266 23.1993 114.919 21.969C114.708 21.8581 114.554 21.868 114.347 21.9756C112.01 23.2015 109.668 24.4165 107.326 25.6336C107.2 25.6995 107.072 25.7654 106.939 25.8104C106.314 26.0225 105.855 25.6797 105.887 24.9306L105.886 24.9328Z" fill="#0071BC"/>
<path d="M139.525 24.9328C139.667 24.0968 139.823 23.1642 139.985 22.2327C140.301 20.4246 140.615 18.6153 140.94 16.8083C140.978 16.5985 140.885 16.4898 140.753 16.3634C138.891 14.5773 137.031 12.789 135.173 10.9995C135.047 10.8787 134.922 10.7546 134.815 10.6172C134.352 10.0208 134.523 9.50338 135.257 9.32652C135.629 9.23645 136.012 9.18921 136.392 9.13429C138.75 8.79815 141.108 8.46311 143.468 8.13356C143.688 8.10281 143.804 8.00284 143.901 7.80841C145.067 5.45984 146.241 3.11567 147.413 0.770394C147.6 0.395809 147.781 -0.00733627 148.29 0.000353152C148.78 0.00804257 148.957 0.401302 149.139 0.764901C150.311 3.11017 151.486 5.45435 152.65 7.80402C152.754 8.01603 152.887 8.1061 153.114 8.13796C155.723 8.50485 158.331 8.87834 160.938 9.25402C161.122 9.28039 161.307 9.32103 161.48 9.38474C162.004 9.57698 162.149 10.0164 161.837 10.4777C161.728 10.6392 161.589 10.7831 161.448 10.9182C159.577 12.7263 157.706 14.5345 155.827 16.3349C155.652 16.5029 155.591 16.649 155.635 16.8995C156.092 19.4557 156.534 22.0141 156.973 24.5724C157.011 24.7943 157.016 25.0294 156.99 25.2535C156.934 25.7281 156.591 25.9587 156.126 25.8456C155.947 25.8028 155.774 25.7248 155.609 25.6402C153.257 24.4209 150.904 23.1993 148.558 21.969C148.347 21.8581 148.193 21.868 147.986 21.9756C145.649 23.2015 143.307 24.4165 140.965 25.6336C140.838 25.6995 140.711 25.7654 140.577 25.8104C139.953 26.0225 139.494 25.6797 139.526 24.9306L139.525 24.9328Z" fill="#0071BC"/>
</svg>
