<?xml version="1.0" encoding="UTF-8"?>
<!-- Generator: visioncortex VTracer 0.6.3 -->
<svg version="1.1" xmlns="http://www.w3.org/2000/svg" width="1280" height="203">
<path d="M0 0 C3.2 0.37 5.53 0.81 8.25 2.59 C9.99 5.02 11 7.43 12.13 10.2 C12.81 11.63 13.49 13.05 14.18 14.47 C15.77 17.72 17.31 20.99 18.83 24.28 C21.21 29.42 23.73 34.49 26.32 39.54 C27.9 42.64 29.38 45.73 30.64 48.98 C32.86 55.05 32.86 55.05 37.15 59.6 C39.49 60.43 41.69 60.8 44.13 61.2 C45.61 61.52 47.09 61.84 48.56 62.16 C54.98 63.45 61.44 64.1 67.94 64.77 C70.32 65.02 72.7 65.27 75.09 65.52 C76.13 65.63 77.17 65.74 78.24 65.85 C80.91 66.18 83.5 66.66 86.13 67.2 C88.59 67.48 91.05 67.75 93.5 68.02 C99.22 68.71 103.51 69.68 108.13 73.2 C109.67 76.28 109.36 78.81 109.13 82.2 C107.15 87.68 103.33 92.22 99.13 96.2 C98.47 96.2 97.81 96.2 97.13 96.2 C96.89 96.78 96.66 97.35 96.42 97.93 C94.83 100.73 92.93 102.4 90.5 104.52 C89.6 105.31 88.7 106.1 87.78 106.91 C86.9 107.67 86.03 108.42 85.13 109.2 C83.8 110.37 82.46 111.54 81.13 112.7 C80.49 113.26 79.86 113.81 79.2 114.38 C75.94 117.25 72.74 120.17 69.52 123.09 C67.13 125.2 67.13 125.2 64.45 127.22 C62.09 129.23 61.24 130.37 60.13 133.2 C60.06 135.22 60.06 135.22 60.45 137.31 C60.57 138.12 60.69 138.92 60.82 139.75 C60.96 140.63 61.11 141.5 61.25 142.39 C61.4 143.3 61.54 144.21 61.68 145.14 C61.99 147.11 62.3 149.08 62.62 151.05 C63.15 154.34 63.66 157.64 64.16 160.94 C64.5 163.17 64.85 165.41 65.19 167.64 C65.35 168.7 65.52 169.76 65.68 170.85 C66.47 175.83 67.38 180.46 69.13 185.2 C71.7 198.84 71.7 198.84 68.13 204.2 C59.97 205.75 53.39 204.13 46.42 199.86 C43.7 197.89 41.47 195.61 39.13 193.2 C35.31 190.87 31.28 189.23 27.07 187.77 C24.12 186.72 22.68 185.85 20.13 183.83 C14.28 179.43 5.03 176.06 -2.35 176.28 C-4.73 177 -6.69 178.01 -8.87 179.2 C-10.5 179.99 -10.5 179.99 -12.16 180.78 C-21.44 185.24 -30.51 190.12 -39.63 194.9 C-41.47 195.87 -43.32 196.84 -45.18 197.8 C-46.97 198.73 -48.74 199.69 -50.5 200.67 C-56.01 203.64 -59.73 204.8 -66 204.52 C-67.3 204.47 -68.6 204.43 -69.94 204.38 C-70.91 204.32 -71.87 204.26 -72.87 204.2 C-74.88 197.69 -75.78 191.5 -72.92 185.07 C-71.37 180.83 -70.91 176.48 -70.31 172.02 C-70.06 170.21 -69.81 168.4 -69.55 166.6 C-69.45 165.8 -69.34 165.01 -69.23 164.19 C-68.87 162.2 -68.87 162.2 -67.87 160.2 C-67.59 158.53 -67.36 156.84 -67.15 155.15 C-66.96 153.64 -66.96 153.64 -66.77 152.1 C-66.64 151.04 -66.5 149.98 -66.37 148.89 C-66.11 146.81 -65.85 144.73 -65.59 142.65 C-65.48 141.73 -65.36 140.8 -65.24 139.85 C-64.87 137.2 -64.87 137.2 -64.23 134.55 C-63.61 132.01 -63.61 132.01 -65.37 129.27 C-68.24 125.75 -71.32 122.96 -74.81 120.08 C-75.42 119.57 -76.02 119.06 -76.65 118.53 C-79.27 116.33 -81.91 114.17 -84.61 112.07 C-86.73 110.32 -88.39 108.58 -90.12 106.45 C-95.19 100.53 -100.91 95.53 -107.31 91.08 C-110.81 88.48 -112.17 86.65 -112.87 82.2 C-113.6 74.19 -113.6 74.19 -111.59 71.47 C-109.21 69.72 -106.86 69.71 -103.98 69.45 C-101.6 69.23 -101.6 69.23 -98.31 68.14 C-94.68 67.15 -91.61 67.2 -87.87 67.2 C-86.94 66.71 -86.94 66.71 -85.99 66.21 C-83.38 64.97 -81.49 65 -78.62 65.08 C-77.28 65.11 -77.28 65.11 -75.92 65.13 C-75.24 65.16 -74.57 65.18 -73.87 65.2 C-73.87 64.87 -73.87 64.54 -73.87 64.2 C-68.8 63.49 -64 63.2 -58.87 63.2 C-56.77 62.8 -56.77 62.8 -54.87 62.2 C-52.22 61.59 -50.09 61.19 -47.37 61.39 C-42.87 61.05 -40.51 57.92 -37.62 54.7 C-35.98 52.36 -35.33 50.97 -34.87 48.2 C-34.54 47.21 -34.21 46.22 -33.87 45.2 C-33.21 45.2 -32.55 45.2 -31.87 45.2 C-31.77 44.3 -31.66 43.39 -31.56 42.45 C-30.84 39.07 -29.95 37.86 -27.87 35.2 C-27.58 34.33 -27.3 33.46 -27 32.56 C-24.95 26.48 -21.84 20.92 -18.88 15.25 C-17.95 13.37 -17.16 11.43 -16.39 9.49 C-12.73 1.22 -8.68 -0.41 0 0 Z M-63.87 137.2 C-62.87 139.2 -62.87 139.2 -62.87 139.2 Z M-64.87 146.2 C-63.87 148.2 -63.87 148.2 -63.87 148.2 Z M-65.87 151.2 C-64.87 153.2 -64.87 153.2 -64.87 153.2 Z M-68.87 167.2 C-67.87 169.2 -67.87 169.2 -67.87 169.2 Z " fill="#FAD80C" transform="translate(374.870849609375,-1.204345703125)"/>
<path d="M0 0 C14.31 -1.06 14.31 -1.06 18.04 1.28 C19.34 3.13 20.18 4.89 21 7 C21.66 8.23 22.33 9.46 23 10.69 C24.52 13.84 25.83 17.06 27.12 20.31 C29.76 26.76 32.97 32.86 36.28 38.98 C38.19 42.52 40.07 46.02 41.59 49.75 C43.96 55.47 43.96 55.47 48.39 59.58 C53.92 61.82 59.55 62.46 65.47 62.79 C69.98 63.06 74.45 63.52 78.94 64 C79.75 64.08 80.57 64.17 81.41 64.25 C84.48 64.57 87.49 64.9 90.52 65.51 C92.75 65.95 94.88 66.2 97.14 66.39 C97.9 66.46 98.66 66.53 99.45 66.6 C101.01 66.74 102.58 66.87 104.14 66.99 C109.76 67.52 115.85 68.85 120 73 C120.83 76.51 120.82 79.49 120 83 C115.92 88.96 111.17 93.33 105 97 C103.37 98.64 103.37 98.64 101.94 100.5 C95.36 108.3 87.34 114.92 79.62 121.56 C77.96 122.99 77.96 122.99 76.41 124.69 C75 126 75 126 73 126 C68.47 134.14 71.73 144.1 73.39 152.76 C73.82 154.97 74.23 157.18 74.64 159.39 C75.62 164.65 76.61 169.9 77.59 175.16 C78.05 177.63 78.5 180.09 78.94 182.56 C79.17 183.84 79.41 185.12 79.65 186.44 C80.15 191.58 79.7 196.12 77.88 201 C76 203 76 203 72.94 203.4 C67.88 202.89 64.5 201.04 60.12 198.56 C58.44 197.64 56.76 196.72 55.07 195.8 C53.8 195.1 53.8 195.1 52.51 194.38 C48.7 192.28 44.85 190.27 41 188.25 C36.27 185.75 31.56 183.22 26.88 180.62 C25.25 179.75 23.63 178.87 22 178 C21.37 177.66 20.74 177.32 20.09 176.97 C15.42 174.68 11.06 173.9 6 175 C0.46 177.28 -4.76 180.1 -10 183 C-10.73 183.41 -11.47 183.81 -12.23 184.23 C-15.24 185.9 -18.25 187.58 -21.25 189.27 C-27.07 192.53 -32.97 195.57 -38.96 198.49 C-41.78 199.86 -44.39 201.26 -47 203 C-50.32 203.23 -50.32 203.23 -54.12 203.19 C-55.39 203.18 -56.65 203.17 -57.95 203.17 C-61 203 -61 203 -62 202 C-62.78 187.75 -60.96 174.7 -57.46 160.9 C-51.93 143.82 -51.93 143.82 -54.16 126.88 C-55.95 124.69 -57.9 122.89 -60 121 C-61.41 119.55 -62.82 118.09 -64.23 116.63 C-69.29 111.41 -74.63 106.75 -80.33 102.23 C-84.85 98.45 -88.9 94.22 -93 90 C-93.88 89.13 -94.77 88.25 -95.68 87.35 C-99.21 83.78 -100.85 81.43 -101.38 76.38 C-101 73 -101 73 -99.88 71.19 C-95.31 68.3 -91.27 68 -86 68 C-84.86 67.5 -84.86 67.5 -83.69 67 C-80.36 65.76 -77.6 65.89 -74.09 66.03 C-71.8 66.1 -71.8 66.1 -69 65 C-65.73 64.45 -62.63 63.99 -59.31 64.06 C-56.99 64.17 -56.99 64.17 -55.14 63 C-52.68 61.85 -51.13 61.82 -48.44 61.94 C-45.47 62.05 -43.88 61.96 -41 61 C-38.98 60.74 -36.96 60.56 -34.94 60.38 C-32.68 60.07 -32.68 60.07 -30 58 C-29.01 57.67 -28.02 57.34 -27 57 C-26.16 55.29 -26.16 55.29 -25.65 53.16 C-23.87 47.3 -21.29 41.94 -18.62 36.44 C-18.16 35.45 -17.69 34.46 -17.2 33.44 C-14.78 28.4 -12.22 23.63 -9.19 18.95 C-7.05 15.45 -5.39 11.72 -3.69 8 C-3.33 7.23 -2.97 6.45 -2.6 5.65 C-1.73 3.77 -0.86 1.89 0 0 Z M-25 53 C-24 55 -24 55 -24 55 Z M117 77 C117 78.65 117 80.3 117 82 C116.34 82 115.68 82 115 82 C115.33 82.66 115.66 83.32 116 84 C116.66 83.67 117.32 83.34 118 83 C118 81.02 118 79.04 118 77 C117.67 77 117.34 77 117 77 Z M91 107 C92 109 92 109 92 109 Z " fill="#FAD80D" transform="translate(630,0)"/>
<path d="M0 0 C12.1 -1.34 12.1 -1.34 15.98 1.41 C17.66 3.85 18.81 6.28 20 9 C20.66 10.37 21.32 11.74 21.98 13.1 C23.38 15.99 24.74 18.89 26.07 21.82 C27.29 24.5 28.57 27.14 29.91 29.76 C31.6 33.09 33.09 36.49 34.55 39.93 C35 40.97 35.45 42.01 35.92 43.09 C36.85 45.25 37.77 47.42 38.67 49.6 C41.29 56.07 41.29 56.07 46.57 60.2 C49.28 60.83 51.74 61.41 54.5 61.56 C59 61.9 63.46 62.41 67.94 63 C69.84 63.25 69.84 63.25 71.78 63.5 C75 64 75 64 78 65 C81.65 65.31 85.29 65.51 88.95 65.72 C92 66 92 66 93 67 C94.5 67.19 96 67.32 97.5 67.44 C112.42 68.85 112.42 68.85 117 74 C118.28 77.61 118.08 79.65 117.19 83.38 C114.68 88.6 109.52 91.62 105 95 C99.35 99.51 94.51 104.61 89.65 109.93 C86.14 113.78 82.59 117.59 78.94 121.31 C78.06 122.22 77.18 123.12 76.28 124.05 C74 126 74 126 71 126 C68.26 134.64 69.7 141.65 71.75 150.31 C72.31 152.79 72.87 155.26 73.42 157.74 C73.83 159.55 73.83 159.55 74.24 161.39 C75.2 165.96 75.91 170.54 76.57 175.15 C76.99 177.9 77.52 180.6 78.12 183.31 C79.62 190.71 79.41 196.18 76 203 C72.37 203 68.74 203 65 203 C65 202.01 65 201.02 65 200 C64.05 199.65 64.05 199.65 63.08 199.3 C58.84 197.51 54.81 195.39 50.75 193.25 C49.9 192.8 49.05 192.35 48.17 191.89 C43.19 189.25 38.44 186.46 33.82 183.23 C25.99 177.93 15.54 173.25 6 174 C-1.31 176.19 -7.96 179.99 -14.51 183.85 C-19.56 186.81 -24.75 189.43 -30.03 191.98 C-33.36 193.61 -36.57 195.3 -39.7 197.28 C-47.31 202.06 -52.92 204.2 -62 203 C-62.03 200.25 -62.05 197.5 -62.06 194.75 C-62.07 193.97 -62.08 193.2 -62.09 192.39 C-62.09 191.64 -62.09 190.89 -62.1 190.11 C-62.1 189.42 -62.11 188.73 -62.11 188.01 C-61.99 185.88 -61.54 184.06 -61 182 C-60.69 180.22 -60.41 178.44 -60.13 176.66 C-59.97 175.61 -59.81 174.55 -59.64 173.47 C-59.47 172.34 -59.3 171.22 -59.12 170.06 C-58.95 168.91 -58.77 167.76 -58.59 166.57 C-57.33 158.28 -56.12 149.98 -54.95 141.68 C-54.84 140.88 -54.73 140.09 -54.61 139.27 C-54.46 138.16 -54.46 138.16 -54.31 137.03 C-54 135 -54 135 -53.19 131.71 C-52.73 128.93 -52.73 128.93 -54.45 126.65 C-55.19 125.9 -55.93 125.15 -56.69 124.38 C-57.52 123.52 -58.35 122.66 -59.2 121.78 C-60.13 120.86 -61.05 119.95 -62 119 C-62.98 117.99 -63.95 116.98 -64.92 115.97 C-70.2 110.52 -75.61 105.57 -81.62 100.93 C-84.96 98.22 -87.9 95.19 -90.89 92.1 C-92.82 90.17 -94.81 88.46 -96.94 86.75 C-100.55 83.71 -101.69 81.1 -102.38 76.44 C-102 74 -102 74 -100.62 71.88 C-94.5 67.5 -87.6 66.63 -80.23 66.99 C-76.88 67 -74.16 66.05 -71 65 C-68.74 65.12 -68.74 65.12 -66.31 65.44 C-65.5 65.54 -64.7 65.64 -63.86 65.75 C-62.94 65.87 -62.94 65.87 -62 66 C-62 65.34 -62 64.68 -62 64 C-61.09 64.02 -60.18 64.04 -59.25 64.06 C-56.19 64.13 -56.19 64.13 -54.06 63.5 C-51.05 62.77 -48.09 63 -45 63 C-44.01 62.67 -43.02 62.34 -42 62 C-41.01 62.33 -40.02 62.66 -39 63 C-39 62.34 -39 61.68 -39 61 C-38.2 60.85 -38.2 60.85 -37.38 60.69 C-31.7 59.04 -28.41 56.79 -25 52 C-23.95 49.82 -22.97 47.61 -22.06 45.38 C-19.5 39.19 -16.8 33.08 -14 27 C-13.34 27 -12.68 27 -12 27 C-11.65 25.54 -11.65 25.54 -11.29 24.05 C-9.97 19.44 -7.75 15.43 -5.44 11.25 C-4.62 9.76 -3.81 8.26 -3 6.77 C-2.64 6.11 -2.28 5.46 -1.91 4.79 C-0.87 2.85 -0.87 2.85 0 0 Z M-24 52 C-23 54 -23 54 -23 54 Z M115 76 C115 77.98 115 79.96 115 82 C115.33 82 115.66 82 116 82 C116 80.02 116 78.04 116 76 C115.67 76 115.34 76 115 76 Z M67 138 C68 141 68 141 68 141 Z M76 187 C76 188.65 76 190.3 76 192 C76.33 192 76.66 192 77 192 C77 190.35 77 188.7 77 187 C76.67 187 76.34 187 76 187 Z M76 193 C76 194.65 76 196.3 76 198 C76.33 198 76.66 198 77 198 C77 196.35 77 194.7 77 193 C76.67 193 76.34 193 76 193 Z " fill="#FAD80C" transform="translate(897,0)"/>
<path d="M0 0 C4.62 9.12 9.14 18.28 13.56 27.5 C14.03 28.48 14.5 29.46 14.99 30.46 C18.08 36.95 21.04 43.47 23.72 50.13 C25.93 55.44 28.18 58.04 33.27 60.71 C37.27 62.09 40.53 62.43 44.75 62.56 C50.31 62.8 55.61 63.35 61.07 64.46 C65.52 65.28 70.02 65.78 74.52 66.3 C79.61 66.9 79.61 66.9 82.11 67.53 C84.68 68.17 87.23 68.31 89.88 68.5 C94.02 68.8 97.88 69.31 102 70 C102 75.28 102 80.56 102 86 C100.02 86.99 100.02 86.99 98 88 C96.38 89.63 96.38 89.63 94.88 91.56 C91.42 95.64 87.65 99.15 83.64 102.68 C80.04 105.84 76.54 109.1 73.03 112.35 C71 114 71 114 69 114 C68.76 114.58 68.52 115.15 68.28 115.75 C66.74 118.46 64.93 120.04 62.56 122.06 C59.95 124.3 57.4 126.53 55 129 C54.34 128.67 53.68 128.34 53 128 C54.13 139.47 55.7 150.7 58 162 C64.51 194.24 64.51 194.24 61 203 C51.4 204.87 44.87 199.94 37.04 195.19 C33.94 193.38 30.73 191.81 27.5 190.25 C23.86 188.47 20.37 186.69 17 184.44 C8.62 179.04 -0.87 174.24 -11 176 C-17.87 178.49 -24.36 182.17 -30.81 185.56 C-31.81 186.08 -32.81 186.6 -33.84 187.13 C-38.79 189.71 -43.67 192.36 -48.45 195.23 C-58.61 201.27 -64.91 204.44 -77 203 C-77 197.72 -77 192.44 -77 187 C-76.34 187 -75.68 187 -75 187 C-75.19 186.11 -75.37 185.23 -75.56 184.31 C-76.34 178.43 -74.37 174.26 -72 169 C-71.67 169 -71.34 169 -71 169 C-71.01 168.05 -71.02 167.09 -71.04 166.11 C-71.04 164.86 -71.05 163.6 -71.06 162.31 C-71.07 161.07 -71.09 159.83 -71.1 158.55 C-71.01 155.52 -70.65 152.94 -70 150 C-70 149.01 -70 148.02 -70 147 C-69.34 147 -68.68 147 -68 147 C-68.08 146.17 -68.17 145.34 -68.25 144.48 C-68.36 143.39 -68.46 142.31 -68.56 141.19 C-68.72 139.57 -68.72 139.57 -68.88 137.92 C-69 135 -69 135 -68 132 C-69.83 124.67 -76.29 119.62 -81.81 114.94 C-84.26 112.77 -86.53 110.47 -88.81 108.12 C-93.11 103.77 -97.65 99.89 -102.46 96.11 C-114.52 86.12 -114.52 86.12 -115.31 79.33 C-115.31 76.86 -115.22 74.45 -115 72 C-114.01 71.5 -114.01 71.5 -113 71 C-113 70.67 -113 70.34 -113 70 C-110.63 69.47 -108.25 68.95 -105.88 68.44 C-105.21 68.29 -104.54 68.13 -103.86 67.98 C-99.6 67.08 -96.24 67 -92 68 C-92 67.34 -92 66.68 -92 66 C-91.31 66.01 -90.63 66.02 -89.92 66.04 C-88.57 66.05 -88.57 66.05 -87.19 66.06 C-86.29 66.07 -85.4 66.09 -84.48 66.1 C-81.87 66.11 -81.87 66.11 -79 65 C-76.11 64.43 -73.45 63.99 -70.5 64.06 C-67.91 64.13 -67.91 64.13 -65.31 63 C-61.49 61.85 -58.33 61.93 -54.37 62.12 C-51.66 61.98 -50.34 61.34 -48 60 C-47.02 59.63 -46.03 59.25 -45.02 58.87 C-40.92 56.33 -39.69 53.42 -37.75 49.12 C-37.41 48.42 -37.07 47.71 -36.73 46.98 C-34.56 42.41 -32.6 37.8 -31 33 C-30.33 31 -29.67 29 -29 27 C-28.34 27 -27.68 27 -27 27 C-26.9 26.13 -26.79 25.27 -26.69 24.38 C-25.97 20.83 -24.73 18.16 -23 15 C-22.34 15 -21.68 15 -21 15 C-20.94 14.01 -20.88 13.02 -20.81 12 C-18.67 -0.91 -11.48 -1.04 0 0 Z M-25 21 C-24 23 -24 23 -24 23 Z M60 186 C60 190.29 60 194.58 60 199 C60.33 199 60.66 199 61 199 C61 194.71 61 190.42 61 186 C60.67 186 60.34 186 60 186 Z " fill="#FAD80C" transform="translate(1178,0)"/>
<path d="M0 0 C0.98 0.01 1.97 0.02 2.98 0.03 C4.11 0.04 4.11 0.04 5.25 0.06 C5.65 1.01 5.65 1.01 6.06 1.98 C9.04 8.77 12.48 15.07 16.29 21.41 C18.28 24.92 19.69 28.57 21.15 32.33 C23.17 37.34 25.54 42.19 27.88 47.06 C28.36 48.1 28.85 49.13 29.36 50.2 C29.83 51.19 30.3 52.17 30.79 53.19 C31.21 54.08 31.64 54.97 32.08 55.88 C33.18 58.19 33.18 58.19 35.25 60.06 C37.76 60.68 37.76 60.68 40.69 61.06 C44.59 61.64 48.46 62.28 52.34 63 C58.67 64.16 65.01 65.13 71.38 66.06 C73.14 66.33 73.14 66.33 74.94 66.6 C82.98 67.78 91 68.75 99.09 69.47 C102.41 70.09 103.97 70.58 106.25 73.06 C107.41 76.85 107.14 80.23 106.25 84.06 C102.36 90.6 96.8 95.8 90.97 100.62 C89.08 102.16 89.08 102.16 86.88 104.5 C85.25 106.06 85.25 106.06 83.25 106.06 C82.99 106.66 82.73 107.26 82.46 107.88 C81.16 110.23 79.95 111.38 77.88 113.06 C74.02 116.33 70.4 119.76 66.81 123.31 C66.28 123.83 65.75 124.35 65.2 124.89 C62.82 127.26 61.33 128.83 60.25 132.06 C60.53 134.4 60.86 136.74 61.25 139.06 C61.25 139.39 61.25 139.72 61.25 140.06 C61.36 141.65 61.49 143.23 61.62 144.81 C61.69 145.67 61.76 146.53 61.84 147.42 C62.13 150.05 62.13 150.05 63.23 152.27 C64.75 156.42 64.9 160.61 65.25 165 C65.7 170.72 66.42 175.6 68.25 181.06 C68.49 183.78 68.62 186.35 68.62 189.06 C68.65 189.75 68.67 190.43 68.7 191.14 C68.73 196.24 67.55 199.2 64.25 203.06 C61.25 203.62 61.25 203.62 58.25 203.06 C56.91 202.07 55.58 201.07 54.25 200.06 C52.01 198.8 49.78 197.57 47.5 196.38 C46.85 196.03 46.2 195.69 45.53 195.33 C39.97 192.4 34.36 189.59 28.71 186.85 C25.7 185.38 22.97 183.87 20.18 182 C12.57 176.97 4.35 174.2 -4.75 175.06 C-6.09 175.37 -7.42 175.7 -8.75 176.06 C-8.75 176.72 -8.75 177.38 -8.75 178.06 C-10.38 178.88 -12 179.69 -13.63 180.5 C-15.06 181.22 -16.5 181.94 -17.94 182.66 C-21.57 184.47 -25.21 186.29 -28.85 188.09 C-35.67 191.48 -42.46 194.92 -49.19 198.5 C-49.83 198.84 -50.48 199.18 -51.14 199.54 C-54.14 201.03 -54.14 201.03 -56.75 203.06 C-58.94 203.14 -61.13 203.15 -63.31 203.12 C-65.11 203.11 -65.11 203.11 -66.94 203.1 C-67.87 203.09 -68.8 203.07 -69.75 203.06 C-69.73 202.09 -69.71 201.12 -69.69 200.12 C-69.39 197.19 -69.39 197.19 -70.75 196.06 C-71.46 187.05 -70.4 179.39 -66.92 171.08 C-64 163.66 -64.11 155.9 -63.91 148.03 C-63.69 145.28 -62.95 142.75 -62.18 140.11 C-61.2 135.45 -61.48 130.28 -63.88 126.1 C-65.4 124.27 -66.99 122.67 -68.75 121.06 C-69.41 120.45 -70.07 119.85 -70.75 119.22 C-73.57 116.69 -76.47 114.29 -79.44 111.94 C-82.07 109.81 -84.36 107.46 -86.75 105.06 C-87.61 104.24 -88.47 103.41 -89.36 102.56 C-90.63 101.32 -90.63 101.32 -91.94 100.06 C-93.23 98.82 -93.23 98.82 -94.54 97.56 C-96.73 95.08 -97.64 93.13 -98.75 90.06 C-100.6 89.01 -100.6 89.01 -102.75 88.06 C-105.5 86.06 -105.5 86.06 -107.75 83.06 C-108.17 79.69 -108.05 76.44 -107.75 73.06 C-102.8 70.48 -98.84 69.09 -93.31 68.62 C-90.64 68.36 -88.79 68.08 -86.31 67 C-82.22 65.5 -78.06 65.91 -73.75 66.06 C-73.75 65.73 -73.75 65.4 -73.75 65.06 C-68.67 64.32 -63.86 63.98 -58.73 64.12 C-56.54 64.15 -56.54 64.15 -53.75 63.06 C-51.47 62.8 -49.19 62.62 -46.91 62.44 C-44.46 62.16 -44.46 62.16 -41.75 60.06 C-37.02 57.06 -37.02 57.06 -34.75 57.06 C-34.42 55.91 -34.09 54.75 -33.75 53.56 C-31.75 47.55 -28.8 42.02 -25.93 36.38 C-23.76 32.1 -21.67 27.78 -19.62 23.44 C-19.29 22.74 -18.96 22.04 -18.62 21.31 C-17.01 17.88 -15.47 14.43 -14.05 10.91 C-13.79 10.26 -13.53 9.61 -13.25 8.94 C-12.55 7.18 -11.86 5.4 -11.17 3.62 C-9.75 1.06 -9.75 1.06 -7.94 0.19 C-5.28 0.03 -2.66 -0.03 0 0 Z M-10.75 5.06 C-9.75 7.06 -9.75 7.06 -9.75 7.06 Z M-13.75 12.06 C-12.75 14.06 -12.75 14.06 -12.75 14.06 Z M-14.75 15.06 C-13.75 17.06 -13.75 17.06 -13.75 17.06 Z M-60.75 130.06 C-60.75 132.37 -60.75 134.68 -60.75 137.06 C-60.42 137.06 -60.09 137.06 -59.75 137.06 C-59.75 134.75 -59.75 132.44 -59.75 130.06 C-60.08 130.06 -60.41 130.06 -60.75 130.06 Z M58.25 132.06 C59.25 134.06 59.25 134.06 59.25 134.06 Z M60.25 147.06 C61.25 150.06 61.25 150.06 61.25 150.06 Z M-63.75 164.06 C-62.75 167.06 -62.75 167.06 -62.75 167.06 Z M-64.75 168.06 C-63.75 170.06 -63.75 170.06 -63.75 170.06 Z M-68.75 178.06 C-67.75 180.06 -67.75 180.06 -67.75 180.06 Z M-69.75 183.06 C-68.75 185.06 -68.75 185.06 -68.75 185.06 Z " fill="#FAD80C" transform="translate(107.75,-0.0625)"/>
<path d="M0 0 C0.33 0 0.66 0 1 0 C0.67 6.93 0.34 13.86 0 21 C-0.66 21.33 -1.32 21.66 -2 22 C-2.05 19.27 -2.09 16.54 -2.12 13.81 C-2.14 13.04 -2.16 12.27 -2.18 11.48 C-2.21 7.19 -2 3.92 0 0 Z " fill="#F4E575" transform="translate(837,181)"/>
<path d="M0 0 C0.99 0 1.98 0 3 0 C2.89 1.98 2.76 3.96 2.62 5.94 C2.52 7.59 2.52 7.59 2.41 9.28 C2.28 10.18 2.14 11.07 2 12 C1.01 12.5 1.01 12.5 0 13 C-1.36 10.27 -0.88 8.39 -0.56 5.38 C-0.41 3.87 -0.41 3.87 -0.25 2.34 C-0.17 1.57 -0.09 0.79 0 0 Z M0 5 C1 7 1 7 1 7 Z " fill="#CEB744" transform="translate(38,178)"/>
<path d="M0 0 C0.33 0 0.66 0 1 0 C1 2.64 1 5.28 1 8 C0.67 8 0.34 8 0 8 C0 5.36 0 2.72 0 0 Z " fill="#FBD809" transform="translate(1106,158)"/>
<path d="M0 0 C1 4 1 4 1 4 Z " fill="#FBD809" transform="translate(1100,190)"/>
<path d="" fill="#988347" transform="translate(0,0)"/>
<path d="M0 0 C3 1 3 1 3 1 Z " fill="#FBD809" transform="translate(295,63)"/>
<path d="M0 0 C3 1 3 1 3 1 Z " fill="#FBD809" transform="translate(310,61)"/>
<path d="M0 0 C2 1 2 1 2 1 Z " fill="#F8E45E" transform="translate(990,66)"/>
<path d="M0 0 C2 1 2 1 2 1 Z " fill="#FBD809" transform="translate(826,64)"/>
<path d="M0 0 C2 1 2 1 2 1 Z " fill="#FBD809" transform="translate(1235,63)"/>
<path d="M0 0 C2 1 2 1 2 1 Z " fill="#FBD809" transform="translate(445,63)"/>
<path d="M0 0 C2 1 2 1 2 1 Z " fill="#FBD809" transform="translate(961,62)"/>
<path d="" fill="#FBD809" transform="translate(0,0)"/>
<path d="" fill="#FBD809" transform="translate(0,0)"/>
<path d="" fill="#FBD809" transform="translate(0,0)"/>
<path d="" fill="#FBD809" transform="translate(0,0)"/>
<path d="" fill="#FBD809" transform="translate(0,0)"/>
<path d="" fill="#FBD809" transform="translate(0,0)"/>
<path d="" fill="#F5F1B4" transform="translate(0,0)"/>
<path d="" fill="#988347" transform="translate(0,0)"/>
<path d="" fill="#F5F1B4" transform="translate(0,0)"/>
<path d="" fill="#FBD809" transform="translate(0,0)"/>
<path d="" fill="#FBD809" transform="translate(0,0)"/>
<path d="" fill="#FBD809" transform="translate(0,0)"/>
</svg>
